<?xml version="1.0" encoding="utf-8"?>
<!-- Generator: Adobe Illustrator 25.4.1, SVG Export Plug-In . SVG Version: 6.00 Build 0)  -->
<svg version="1.1" id="Layer_1" xmlns="http://www.w3.org/2000/svg" xmlns:xlink="http://www.w3.org/1999/xlink" x="0px" y="0px"
	 width="754.5px" height="364px" viewBox="0 0 754.5 364" style="enable-background:new 0 0 754.5 364;" xml:space="preserve">
<style type="text/css">
	.st0{fill:#656C73;}
	.st1{fill:#EA4335;}
	.st2{fill:#4285F4;}
	.st3{fill:#FBBC04;}
	.st4{fill:#34A853;}
</style>
<g>
	<path class="st0" d="M17.5,263.7c-5.4-3.1-9.8-7.4-12.9-12.9C1.6,245.4,0,239.4,0,232.7s1.6-12.6,4.7-18.2
		c3.1-5.4,7.4-9.8,12.9-12.9s11.3-4.7,17.7-4.7c5,0,9.8,0.9,14.1,2.6s8.1,4.3,10.9,7.4l-5.7,5.7c-2.2-2.6-5-4.7-8.4-6.2
		c-3.4-1.4-7-2.2-10.9-2.2c-4.8,0-9.2,1.1-13.3,3.4s-7.4,5.6-9.9,9.8c-2.5,4.2-3.7,9.2-3.7,14.6c0,5.6,1.2,10.4,3.7,14.6
		c2.5,4.2,5.9,7.5,9.9,9.8c4.2,2.3,8.7,3.4,13.3,3.4c4.5,0,8.4-0.8,11.5-2.2c3.1-1.4,5.7-3.3,8.1-5.7c1.7-1.7,2.9-3.9,4-6.5
		c1.1-2.5,1.6-5.3,1.9-8.2H35.5v-7.4h32.7c0.3,1.7,0.5,3.4,0.5,5c0,4.2-0.6,8.2-2,12.3c-1.4,4-3.4,7.4-6.4,10.4
		c-6.4,6.8-14.7,10.2-25,10.2C28.9,268.4,23,266.8,17.5,263.7z"/>
	<path class="st0" d="M86.4,265.1c-3.7-2.2-6.5-5.3-8.7-9c-2-3.9-3.1-8.1-3.1-12.9c0-4.7,1.1-9,3.1-12.9c2-3.9,5-6.8,8.7-9
		c3.7-2.2,7.9-3.3,12.4-3.3c4.7,0,8.8,1.1,12.6,3.3c3.7,2.2,6.7,5.3,8.7,9c2,3.9,3.1,8.1,3.1,12.9c0,4.7-1.1,9-3.1,12.9
		c-2,3.9-5,6.8-8.7,9c-3.7,2.2-7.9,3.3-12.6,3.3C94.4,268.4,90.2,267.3,86.4,265.1z M106.9,258.9c2.5-1.4,4.5-3.6,5.9-6.2
		c1.6-2.6,2.2-5.9,2.2-9.3c0-3.6-0.8-6.7-2.2-9.3c-1.6-2.6-3.4-4.8-5.9-6.2c-2.5-1.4-5.1-2.2-8.1-2.2c-2.8,0-5.4,0.8-7.9,2.2
		c-2.5,1.4-4.5,3.6-5.9,6.2c-1.6,2.6-2.2,5.9-2.2,9.3c0,3.6,0.8,6.7,2.2,9.3c1.6,2.6,3.4,4.8,5.9,6.2c2.5,1.4,5.1,2.2,7.9,2.2
		C101.8,261.1,104.4,260.3,106.9,258.9z"/>
	<path class="st0" d="M140.4,265.1c-3.7-2.2-6.5-5.3-8.7-9c-2-3.9-3.1-8.1-3.1-12.9c0-4.7,1.1-9,3.1-12.9c2-3.9,5-6.8,8.7-9
		c3.7-2.2,7.9-3.3,12.4-3.3c4.7,0,8.8,1.1,12.6,3.3c3.7,2.2,6.7,5.3,8.7,9c2,3.9,3.1,8.1,3.1,12.9c0,4.7-1.1,9-3.1,12.9
		c-2,3.9-5,6.8-8.7,9c-3.7,2.2-7.9,3.3-12.6,3.3C148.4,268.4,144.2,267.3,140.4,265.1z M160.9,258.9c2.5-1.4,4.5-3.6,5.9-6.2
		c1.6-2.6,2.2-5.9,2.2-9.3c0-3.6-0.8-6.7-2.2-9.3c-1.6-2.6-3.4-4.8-5.9-6.2c-2.5-1.4-5.1-2.2-8.1-2.2c-2.8,0-5.4,0.8-7.9,2.2
		s-4.5,3.6-5.9,6.2c-1.6,2.6-2.2,5.9-2.2,9.3c0,3.6,0.8,6.7,2.2,9.3c1.6,2.6,3.4,4.8,5.9,6.2c2.5,1.4,5.1,2.2,7.9,2.2
		C155.8,261.1,158.4,260.3,160.9,258.9z"/>
	<path class="st0" d="M192.3,284.8c-3.6-2.8-6.1-5.9-7.3-9.5l7.4-3.1c0.9,2.8,2.6,5.1,5.1,6.8c2.5,1.7,5.3,2.6,8.7,2.6
		c5,0,8.8-1.4,11.6-4.3c2.6-2.9,4-7,4-12.3V260h-0.3c-1.6,2.5-3.7,4.3-6.5,6.1c-2.8,1.6-6.1,2.3-9.8,2.3c-4,0-7.8-1.1-11.2-3.3
		c-3.4-2.2-6.2-5.1-8.2-9c-2-3.9-3.1-8.1-3.1-12.9s1.1-9,3.1-12.9c2-3.9,4.8-6.8,8.2-9c3.4-2.2,7.1-3.3,11.2-3.3
		c3.6,0,6.8,0.8,9.8,2.3c2.8,1.6,5.1,3.6,6.5,6.1h0.3v-6.8h7.8V265c0,5.3-1.1,9.6-3.1,13.2c-2,3.6-4.8,6.4-8.4,8.1
		c-3.6,1.7-7.4,2.6-11.9,2.6C200.5,289,195.9,287.6,192.3,284.8z M214.2,258.9c2.3-1.4,4.2-3.4,5.7-6.2c1.4-2.6,2.2-5.9,2.2-9.5
		s-0.8-6.8-2.2-9.5c-1.4-2.6-3.3-4.8-5.7-6.2c-2.3-1.4-5-2.2-7.8-2.2c-2.8,0-5.4,0.8-7.8,2.2c-2.3,1.4-4.2,3.6-5.7,6.2
		c-1.4,2.6-2.2,5.9-2.2,9.5s0.8,6.8,2.2,9.5c1.4,2.6,3.3,4.8,5.7,6.2c2.3,1.4,5,2.2,7.8,2.2C209.2,261.1,211.8,260.3,214.2,258.9z"
		/>
	<path class="st0" d="M248.6,198.7h-8.1v68.1h8.1V198.7z"/>
	<path class="st0" d="M267.7,265.1c-3.6-2.2-6.4-5.1-8.4-9c-2-3.9-3.1-8.1-3.1-12.9c0-4.5,0.9-8.8,2.8-12.6c1.9-3.9,4.7-6.8,8.1-9.2
		c3.6-2.3,7.6-3.4,12.1-3.4c4.5,0,8.5,1.1,12.1,3.1c3.4,2,6.1,5,7.9,8.7c1.9,3.7,2.8,8.1,2.8,12.9c0,0.9,0,1.6-0.2,1.9h-37.6
		c0.2,3.6,0.9,6.5,2.6,9c1.6,2.5,3.6,4.3,5.9,5.4c2.3,1.2,4.8,1.9,7.4,1.9c5.9,0,10.6-2.9,13.8-8.7l7.1,3.4c-2,3.9-4.8,6.8-8.4,9.2
		c-3.6,2.3-7.9,3.4-12.9,3.4C275.5,268.4,271.4,267.3,267.7,265.1z M293.6,238c-0.2-1.9-0.6-3.9-1.6-5.7c-0.9-1.9-2.5-3.6-4.7-4.8
		c-2.2-1.4-4.8-2-8.1-2c-3.6,0-6.7,1.1-9.3,3.4c-2.6,2.3-4.2,5.3-5,9.2H293.6z"/>
	<path class="st0" d="M333.2,198.7h20.6c7,0,13,1.4,18.3,4.3c5.3,2.9,9.2,6.8,11.9,12.1c2.8,5.1,4.2,11,4.2,17.7
		c0,6.7-1.4,12.6-4.2,17.7c-2.8,5.1-6.8,9.2-11.9,12.1c-5.3,2.9-11.3,4.3-18.3,4.3h-20.6V198.7z M353.8,259.2c8.1,0,14.4-2.3,19.1-7
		c4.7-4.7,7-11.2,7-19.4c0-8.4-2.3-14.7-7-19.4c-4.7-4.7-11-7-19.1-7h-12.6v52.8H353.8z"/>
	<path class="st0" d="M406.6,265.1c-3.6-2.2-6.4-5.1-8.4-9c-2-3.9-3.1-8.1-3.1-12.9c0-4.5,0.9-8.8,2.8-12.6c1.9-3.9,4.7-6.8,8.1-9.2
		c3.6-2.3,7.6-3.4,12.1-3.4c4.5,0,8.5,1.1,12.1,3.1c3.4,2,6.1,5,7.9,8.7c1.9,3.7,2.8,8.1,2.8,12.9c0,0.9,0,1.6-0.2,1.9h-37.6
		c0.2,3.6,0.9,6.5,2.6,9c1.6,2.5,3.6,4.3,5.9,5.4c2.3,1.2,4.8,1.9,7.4,1.9c5.9,0,10.6-2.9,13.8-8.7l7.1,3.4c-2,3.9-4.8,6.8-8.4,9.2
		c-3.6,2.3-7.9,3.4-12.9,3.4C414.2,268.4,410.2,267.3,406.6,265.1z M432.5,238c-0.2-1.9-0.6-3.9-1.6-5.7c-0.9-1.9-2.5-3.6-4.7-4.8
		c-2.2-1.4-4.8-2-8.1-2c-3.6,0-6.7,1.1-9.3,3.4c-2.6,2.3-4.2,5.3-5,9.2H432.5z"/>
	<path class="st0" d="M442.9,219.7h8.8l14.4,37.7h0.2l14.7-37.7h8.5l-19.4,47.2H462L442.9,219.7z"/>
	<path class="st0" d="M504.4,265.1c-3.6-2.2-6.4-5.1-8.4-9c-2-3.9-3.1-8.1-3.1-12.9c0-4.5,0.9-8.8,2.8-12.6c1.9-3.9,4.7-6.8,8.1-9.2
		c3.6-2.3,7.6-3.4,12.1-3.4c4.5,0,8.5,1.1,12.1,3.1c3.4,2,6.1,5,7.9,8.7c1.9,3.7,2.8,8.1,2.8,12.9c0,0.9,0,1.6-0.2,1.9H501
		c0.2,3.6,0.9,6.5,2.6,9c1.6,2.5,3.6,4.3,5.9,5.4c2.3,1.2,4.8,1.9,7.4,1.9c5.9,0,10.6-2.9,13.8-8.7l7.1,3.4c-2,3.9-4.8,6.8-8.4,9.2
		c-3.6,2.3-7.9,3.4-12.9,3.4C512.1,268.4,507.9,267.3,504.4,265.1z M530.3,238c-0.2-1.9-0.6-3.9-1.6-5.7c-0.9-1.9-2.5-3.6-4.7-4.8
		c-2.2-1.4-4.8-2-8.1-2c-3.6,0-6.7,1.1-9.3,3.4c-2.6,2.3-4.2,5.3-5,9.2H530.3z"/>
	<path class="st0" d="M555.1,198.7H547v68.1h8.1V198.7z"/>
	<path class="st0" d="M574.5,265.1c-3.7-2.2-6.5-5.3-8.7-9c-2-3.9-3.1-8.1-3.1-12.9c0-4.7,1.1-9,3.1-12.9c2-3.9,5-6.8,8.7-9
		c3.7-2.2,7.8-3.3,12.4-3.3s8.8,1.1,12.6,3.3c3.7,2.2,6.7,5.3,8.7,9c2,3.9,3.1,8.1,3.1,12.9c0,4.7-1.1,9-3.1,12.9
		c-2,3.9-5,6.8-8.7,9c-3.7,2.2-7.9,3.3-12.6,3.3S578.2,267.3,574.5,265.1z M595,258.9c2.5-1.4,4.5-3.6,5.9-6.2
		c1.6-2.6,2.2-5.9,2.2-9.3c0-3.6-0.8-6.7-2.2-9.3c-1.6-2.6-3.4-4.8-5.9-6.2c-2.5-1.4-5.1-2.2-8.1-2.2c-2.8,0-5.4,0.8-7.9,2.2
		c-2.5,1.4-4.5,3.6-5.9,6.2c-1.6,2.6-2.2,5.9-2.2,9.3c0,3.6,0.8,6.7,2.2,9.3c1.6,2.6,3.4,4.8,5.9,6.2c2.5,1.4,5.1,2.2,7.9,2.2
		C589.9,261.1,592.5,260.3,595,258.9z"/>
	<path class="st0" d="M618.6,219.7h7.8v7h0.3c1.6-2.5,3.7-4.5,6.5-6.1c2.8-1.6,6.2-2.5,9.9-2.5c4,0,7.8,1.1,11.2,3.3
		c3.4,2.2,6.2,5.1,8.2,9c2,3.9,3.1,8.1,3.1,12.9s-1.1,9-3.1,12.9c-2,3.9-4.8,6.8-8.2,9c-3.4,2.2-7.1,3.3-11.2,3.3
		c-3.7,0-7.1-0.8-9.9-2.5c-2.9-1.6-5.1-3.7-6.5-6.2h-0.3l0.3,6.5v21.1h-8.1V219.7z M649.8,258.9c2.3-1.4,4.3-3.6,5.7-6.2
		c1.4-2.6,2.2-5.9,2.2-9.3c0-3.6-0.8-6.7-2.2-9.3c-1.4-2.6-3.3-4.8-5.7-6.2c-2.3-1.4-5-2.2-7.8-2.2c-2.8,0-5.4,0.8-7.8,2.2
		s-4.3,3.4-5.7,6.2c-1.4,2.6-2.2,5.9-2.2,9.5c0,3.6,0.8,6.7,2.2,9.5c1.4,2.8,3.3,4.8,5.7,6.2c2.3,1.4,5,2.2,7.8,2.2
		C644.8,261.4,647.3,260.3,649.8,258.9z"/>
	<path class="st0" d="M684.5,265.1c-3.6-2.2-6.4-5.1-8.4-9c-2-3.9-3.1-8.1-3.1-12.9c0-4.5,0.9-8.8,2.8-12.6c1.9-3.9,4.7-6.8,8.1-9.2
		c3.6-2.3,7.6-3.4,12.1-3.4c4.5,0,8.5,1.1,12.1,3.1c3.4,2,6.1,5,7.9,8.7c1.9,3.7,2.8,8.1,2.8,12.9c0,0.9,0,1.6-0.2,1.9h-37.6
		c0.2,3.6,0.9,6.5,2.6,9c1.6,2.5,3.6,4.3,5.9,5.4c2.3,1.2,4.8,1.9,7.4,1.9c5.9,0,10.6-2.9,13.8-8.7l7.1,3.4c-2,3.9-4.8,6.8-8.4,9.2
		c-3.6,2.3-7.9,3.4-12.9,3.4C692.3,268.4,688.1,267.3,684.5,265.1z M710.5,238c-0.2-1.9-0.6-3.9-1.6-5.7c-0.9-1.9-2.5-3.6-4.7-4.8
		c-2.2-1.4-4.8-2-8.1-2c-3.6,0-6.7,1.1-9.2,3.4c-2.6,2.3-4.2,5.3-5,9.2H710.5z"/>
	<path class="st0" d="M727.2,219.7h7.8v7.8h0.3c0.9-2.6,2.6-4.8,5.4-6.5c2.8-1.7,5.6-2.6,8.2-2.6c2,0,3.9,0.3,5.6,0.9v8.7
		c-1.7-0.9-3.9-1.4-6.7-1.4c-2.2,0-4.3,0.6-6.2,2c-1.9,1.2-3.4,3.1-4.7,5.3c-1.1,2.2-1.7,4.5-1.7,7.1v26.4h-8.1V219.7z"/>
</g>
<g>
	<path class="st0" d="M103.6,360.2c-3.3-1.4-6.1-3.6-8.5-6.2c-2.5-2.8-4.2-6.1-5.3-10.1l7.8-3.1c1.1,4,3.1,7.5,6.1,9.9
		c2.9,2.6,6.4,3.9,10.2,3.9c4,0,7.3-1.1,10.1-3.3c2.8-2.2,4-5,4-8.7c0-3.1-1.1-5.7-3.4-7.9c-2.3-2-6.1-4-11.3-5.7l-4.3-1.6
		c-4.8-1.7-8.7-4-11.8-6.8c-3.1-2.8-4.5-6.7-4.5-11.6c0-3.3,0.9-6.2,2.6-9c1.7-2.8,4.2-5,7.4-6.7c3.1-1.7,6.7-2.5,10.6-2.5
		s7.4,0.8,10.4,2.2s5.3,3.3,7,5.3c1.7,2.2,2.9,4.2,3.6,6.2l-7.4,3.3c-0.8-2.5-2.2-4.5-4.3-6.4c-2.2-1.9-5.1-2.8-8.8-2.8
		c-3.4,0-6.5,0.9-9,2.9c-2.5,2-3.7,4.5-3.7,7.4c0,2.6,1.1,4.8,3.1,6.5c2,1.7,5.3,3.3,9.5,4.7l4.3,1.6c5.7,2,10.2,4.7,13.5,7.9
		c3.3,3.1,5,7.4,5,12.9c0,4.3-1.1,8.1-3.4,11s-5.1,5.1-8.5,6.5c-3.4,1.4-7,2.2-10.7,2.2C110.1,362.4,106.8,361.7,103.6,360.2z"/>
	<path class="st0" d="M155.9,361.4c-1.6-0.6-2.9-1.6-4.2-2.6c-1.2-1.2-2.2-2.6-2.8-4.3c-0.6-1.7-0.9-3.6-0.9-5.9v-27.6h-8.4v-7.3
		h8.4v-14.1h8.1v14.1h11.6v7.3H156v25.8c0,2.8,0.5,4.8,1.6,6.1c1.1,1.4,2.8,2.2,5,2.2c2,0,3.7-0.5,5.1-1.4v7.8
		c-1.1,0.3-2,0.6-2.9,0.8c-0.9,0.2-2.2,0.3-3.7,0.3C159.1,362.4,157.4,362.1,155.9,361.4z"/>
	<path class="st0" d="M180.3,357.4c-2.9-3.4-4.5-8.1-4.5-14v-29.6h8.1v28.4c0,8.7,3.9,13,11.6,13c2.6,0,5-0.8,7-2.2
		c2-1.4,3.7-3.4,4.8-5.7c1.1-2.3,1.7-4.8,1.7-7.4v-26.1h8.1V361h-7.6v-7h-0.3c-1.4,2.5-3.6,4.5-6.4,6.1c-2.8,1.7-5.9,2.5-9.2,2.5
		C187.7,362.4,183.2,360.7,180.3,357.4z"/>
	<path class="st0" d="M236,359.1c-3.4-2.2-6.2-5.1-8.2-9c-2-3.9-3.1-8.1-3.1-12.9s1.1-9,3.1-12.9c2-3.9,4.8-6.8,8.2-9
		c3.4-2.2,7.1-3.3,11.2-3.3c3.7,0,7,0.8,9.9,2.5c2.9,1.6,5.1,3.6,6.5,6.1h0.3l-0.3-6.5v-21.4h8.1v68.1h-7.6v-7h-0.3
		c-1.4,2.5-3.7,4.5-6.5,6.2c-2.9,1.6-6.2,2.5-9.9,2.5C243.1,362.4,239.4,361.3,236,359.1z M256.1,352.9c2.3-1.4,4.3-3.6,5.7-6.2
		c1.4-2.8,2.2-5.9,2.2-9.5s-0.8-6.8-2.2-9.5c-1.4-2.6-3.3-4.8-5.7-6.2c-2.3-1.4-5-2.2-7.8-2.2c-2.8,0-5.4,0.8-7.8,2.2
		c-2.3,1.4-4.3,3.6-5.7,6.2c-1.4,2.6-2.2,5.9-2.2,9.3c0,3.6,0.8,6.7,2.2,9.3c1.4,2.6,3.3,4.8,5.7,6.2c2.3,1.4,5,2.2,7.8,2.2
		C251.2,355.1,253.8,354.3,256.1,352.9z"/>
	<path class="st0" d="M290.9,359.1c-3.6-2.2-6.4-5.1-8.4-9c-2-3.9-3.1-8.1-3.1-12.9c0-4.5,0.9-8.8,2.8-12.6c1.9-3.9,4.7-6.8,8.1-9.2
		c3.6-2.3,7.6-3.4,12.1-3.4c4.5,0,8.5,1.1,12.1,3.1c3.4,2,6.1,5,7.9,8.7c1.9,3.7,2.8,8.1,2.8,12.9c0,0.9,0,1.6-0.2,1.9h-37.6
		c0.2,3.6,0.9,6.5,2.6,9c1.6,2.5,3.6,4.3,5.9,5.4c2.3,1.2,4.8,1.9,7.4,1.9c5.9,0,10.6-2.9,13.8-8.7l7.1,3.4c-2,3.9-4.8,6.8-8.4,9.2
		c-3.6,2.3-7.9,3.4-12.9,3.4C298.7,362.4,294.5,361.3,290.9,359.1z M316.8,331.9c-0.2-1.9-0.6-3.9-1.6-5.7c-0.9-1.9-2.5-3.6-4.7-4.8
		c-2.2-1.4-4.8-2-8.1-2c-3.6,0-6.7,1.1-9.2,3.4c-2.6,2.3-4.2,5.3-5,9.2H316.8z"/>
	<path class="st0" d="M333.6,313.6h7.8v7h0.3c1.4-2.5,3.4-4.5,6.4-6.1c2.8-1.7,5.9-2.5,9.2-2.5c5.7,0,10.2,1.7,13.2,5.1
		c3,3.4,4.5,7.9,4.5,13.8v30h-8.1v-28.7c0-8.5-4-12.7-11.9-12.7c-2.5,0-4.8,0.8-6.8,2.2c-2,1.4-3.6,3.4-4.7,5.7
		c-1.1,2.3-1.7,4.8-1.7,7.4V361h-8.1V313.6z"/>
	<path class="st0" d="M395.8,361.4c-1.6-0.6-3-1.6-4.2-2.6c-1.2-1.2-2.2-2.6-2.8-4.3s-0.9-3.6-0.9-5.9v-27.6h-8.4v-7.3h8.4v-14.1
		h8.1v14.1h11.6v7.3H396v25.8c0,2.8,0.5,4.8,1.5,6.1c1.1,1.4,2.8,2.2,5,2.2c2,0,3.7-0.5,5.1-1.4v7.8c-1.1,0.3-2,0.6-2.9,0.8
		c-0.9,0.2-2.2,0.3-3.7,0.3C399.2,362.4,397.5,362.1,395.8,361.4z"/>
	<path class="st0" d="M450.9,357.7c-5.4-3.1-9.6-7.4-12.7-12.9c-3.1-5.4-4.7-11.5-4.7-18.2c0-6.7,1.6-12.6,4.7-18.2
		c3.1-5.4,7.3-9.8,12.7-12.9c5.4-3.1,11.3-4.7,17.8-4.7c5.1,0,9.8,0.9,14.1,2.9c4.2,1.9,7.9,4.7,10.9,8.2l-5.7,5.6
		c-2.5-3.1-5.4-5.4-8.5-6.8c-3.1-1.4-6.7-2.2-10.7-2.2c-4.8,0-9.5,1.1-13.5,3.4c-4.2,2.3-7.4,5.6-9.9,9.8s-3.7,9.2-3.7,14.6
		c0,5.6,1.2,10.4,3.7,14.6s5.7,7.4,9.9,9.8c4.2,2.3,8.7,3.4,13.5,3.4c8.4,0,15.4-3.4,21.1-10.2l5.7,5.7c-3.1,3.7-7,6.7-11.6,8.8
		c-4.7,2.2-9.8,3.3-15.4,3.3C462.4,362.4,456.3,360.8,450.9,357.7z"/>
	<path class="st0" d="M511.7,292.7h-8.1v68.1h8.1V292.7z"/>
	<path class="st0" d="M526.8,357.4c-2.9-3.4-4.5-8.1-4.5-14v-29.6h8.1v28.4c0,8.7,3.9,13,11.6,13c2.6,0,5-0.8,7-2.2
		c2-1.4,3.7-3.4,4.8-5.7c1.1-2.3,1.7-4.8,1.7-7.4v-26.1h8.1V361H556v-7h-0.3c-1.4,2.5-3.6,4.5-6.4,6.1c-2.8,1.7-5.9,2.5-9.2,2.5
		C534.2,362.4,529.9,360.7,526.8,357.4z"/>
	<path class="st0" d="M589,360c-2.9-1.6-5.1-3.7-6.5-6.2h-0.3v7h-7.8v-68.1h8.1v21.4l-0.3,6.5h0.3c1.6-2.5,3.7-4.5,6.5-6.1
		c2.8-1.6,6.2-2.5,9.9-2.5c4,0,7.8,1.1,11.2,3.3c3.4,2.2,6.2,5.1,8.2,9c2,3.9,3.1,8.1,3.1,12.9s-1.1,9-3.1,12.9
		c-2,3.9-4.8,6.8-8.2,9c-3.4,2.2-7.1,3.3-11.2,3.3C595.2,362.4,592,361.6,589,360z M605.6,352.9c2.3-1.4,4.3-3.6,5.7-6.2
		c1.4-2.6,2.2-5.9,2.2-9.3c0-3.6-0.8-6.7-2.2-9.3c-1.4-2.6-3.3-4.8-5.7-6.2c-2.3-1.4-5-2.2-7.8-2.2c-2.8,0-5.4,0.8-7.8,2.2
		c-2.3,1.4-4.3,3.4-5.7,6.2c-1.4,2.6-2.2,5.9-2.2,9.5c0,3.6,0.8,6.7,2.2,9.5c1.4,2.8,3.3,4.8,5.7,6.2c2.3,1.4,5,2.2,7.8,2.2
		C600.7,355.1,603.1,354.3,605.6,352.9z"/>
	<path class="st0" d="M633.1,358.6c-3.4-2.5-5.9-5.7-7.3-9.5l7.1-3.1c1.2,2.9,3.1,5.3,5.4,6.8c2.3,1.6,4.8,2.3,7.6,2.3
		c3.1,0,5.6-0.6,7.6-2c2-1.4,2.9-2.9,2.9-4.8s-0.8-3.4-2.2-4.5c-1.5-1.2-4-2.3-7.6-3.1l-6.5-1.6c-3.6-0.8-6.5-2.3-9.2-4.5
		c-2.5-2.2-3.7-5-3.7-8.5c0-2.9,0.8-5.4,2.5-7.4c1.7-2.2,3.9-3.7,6.7-4.8c2.8-1.1,5.9-1.6,9.2-1.6c4,0,7.8,0.9,11,2.8
		s5.7,4.5,7.1,7.9l-7.1,3.1c-1.1-2.3-2.5-4-4.7-5.1c-2-1.1-4.3-1.6-6.8-1.6c-2.5,0-4.7,0.6-6.7,1.9c-2,1.2-2.9,2.8-2.9,4.7
		c0,1.7,0.6,2.9,2,3.9c1.2,0.9,3.4,1.9,6.2,2.6l7,1.7c4.7,1.2,8.2,2.9,10.6,5.4c2.3,2.3,3.4,5.3,3.4,8.5c0,2.8-0.8,5.3-2.3,7.4
		c-1.6,2.2-3.9,4-6.7,5.3c-2.8,1.2-6.1,1.9-9.8,1.9C640.9,362.4,636.7,361.1,633.1,358.6z"/>
</g>
<path class="st1" d="M278.1,91.4L339.4,56c14.3-8.4,19.3-26.7,10.9-41c-8.4-14.3-26.7-19.3-41-10.9L203.5,65L278.1,91.4z"/>
<path class="st2" d="M324.1,182.2c10.3,0,20.5-5.3,26.1-14.9c8.4-14.3,3.4-32.6-10.9-41L233.7,65.3c-14.3-8.4-32.6-3.4-41,10.9
	c-8.4,14.3-3.4,32.6,10.9,41l105.7,60.9C313.9,181,319.1,182.2,324.1,182.2z"/>
<path class="st3" d="M429.2,182.2c5,0,10.3-1.2,14.9-4l105.7-60.9l-73.7-27L414,125.9c-14.3,8.4-19.3,26.7-10.9,41
	C408.7,176.9,418.9,182.2,429.2,182.2z"/>
<path class="st4" d="M534.9,121.3c10.3,0,20.5-5.3,26.1-14.9c8.4-14.3,3.4-32.6-10.9-41L444.4,4.4c-14.3-8.4-32.6-3.4-41,10.9
	c-8.4,14.3-3.4,32.6,10.9,41L520,117.2C524.6,120,529.9,121.3,534.9,121.3z"/>
</svg>
