<?xml version="1.0" standalone="no"?>
<!DOCTYPE svg PUBLIC "-//W3C//DTD SVG 20010904//EN"
 "http://www.w3.org/TR/2001/REC-SVG-20010904/DTD/svg10.dtd">
<svg version="1.0" xmlns="http://www.w3.org/2000/svg"
 width="1319.000000pt" height="1319.000000pt" viewBox="0 0 1319.000000 1319.000000"
 preserveAspectRatio="xMidYMid meet">
<metadata>
Created by potrace 1.14, written by Peter Selinger 2001-2017
</metadata>
<g transform="translate(0.000000,1319.000000) scale(0.100000,-0.100000)"
fill="#000000" stroke="none">
<path d="M6298 13185 c-1 -1 -64 -6 -138 -10 -74 -3 -137 -8 -140 -10 -3 -1
-45 -6 -94 -10 -49 -4 -98 -8 -110 -10 -11 -2 -43 -6 -71 -9 -27 -4 -61 -8
-75 -11 -24 -4 -74 -12 -135 -20 -16 -3 -41 -7 -55 -10 -14 -3 -41 -8 -60 -11
-30 -5 -79 -15 -295 -59 -30 -7 -118 -27 -133 -31 -7 -2 -14 -4 -17 -4 -3 -1
-35 -10 -72 -21 -38 -11 -77 -21 -88 -23 -48 -9 -459 -144 -493 -162 -15 -8
-32 -14 -38 -14 -6 0 -29 -8 -50 -17 -22 -9 -43 -18 -49 -19 -15 -3 -192 -78
-307 -130 -106 -47 -305 -146 -415 -206 -34 -18 -85 -46 -115 -62 -29 -15 -60
-34 -69 -42 -9 -8 -19 -11 -22 -7 -4 3 -7 2 -7 -4 0 -6 -12 -16 -27 -22 -16
-6 -62 -33 -103 -61 -41 -27 -82 -53 -90 -58 -8 -4 -48 -29 -89 -57 -40 -27
-81 -54 -90 -60 -33 -20 -126 -90 -129 -97 -2 -5 -8 -8 -13 -8 -9 0 -176 -124
-194 -145 -5 -6 -26 -22 -45 -35 -19 -13 -37 -27 -40 -30 -3 -3 -32 -27 -65
-55 -33 -27 -69 -58 -80 -68 -85 -74 -147 -130 -198 -179 -33 -32 -61 -58 -62
-58 -1 0 -40 -38 -87 -85 -48 -47 -85 -85 -83 -85 1 0 -25 -28 -59 -63 -68
-70 -150 -161 -211 -233 -22 -26 -45 -52 -50 -58 -6 -6 -48 -58 -93 -116 -46
-58 -95 -120 -110 -138 -15 -19 -29 -39 -31 -45 -2 -6 -10 -18 -18 -25 -8 -8
-32 -42 -55 -76 -23 -33 -44 -63 -47 -66 -13 -11 -91 -131 -91 -140 0 -6 -3
-10 -8 -10 -4 0 -18 -20 -32 -45 -14 -25 -28 -45 -32 -45 -5 0 -8 -5 -8 -11 0
-6 -13 -30 -30 -54 -16 -24 -30 -46 -30 -50 0 -3 -12 -24 -27 -48 -29 -44 -32
-50 -80 -137 -17 -30 -40 -73 -53 -95 -42 -75 -170 -333 -170 -344 0 -6 -5
-11 -12 -11 -6 0 -9 -3 -6 -6 4 -3 -10 -40 -29 -82 -19 -42 -43 -95 -53 -117
-22 -50 -132 -336 -134 -350 -1 -5 -4 -14 -8 -20 -15 -26 -125 -382 -163 -530
-42 -163 -76 -315 -91 -405 -3 -19 -8 -38 -9 -41 -2 -3 -7 -28 -11 -55 -3 -27
-8 -51 -9 -54 -2 -3 -6 -23 -9 -45 -3 -22 -14 -103 -25 -180 -11 -77 -23 -174
-27 -215 -3 -41 -8 -91 -10 -110 -26 -273 -26 -919 1 -1135 2 -22 7 -65 9 -95
8 -84 17 -162 21 -189 2 -13 7 -45 10 -70 10 -72 14 -104 20 -134 3 -15 9 -53
15 -85 6 -31 12 -68 15 -82 3 -14 8 -41 11 -60 6 -33 61 -277 69 -310 13 -45
26 -97 29 -111 6 -23 44 -154 63 -219 9 -30 18 -59 19 -65 3 -14 119 -344 134
-380 7 -16 16 -39 20 -50 4 -11 15 -36 23 -55 8 -19 27 -66 42 -105 16 -38 32
-74 37 -79 4 -6 8 -18 8 -28 0 -10 5 -18 10 -18 6 0 10 -6 10 -13 0 -8 17 -47
37 -88 20 -41 37 -76 38 -79 2 -17 142 -278 218 -410 27 -47 58 -101 69 -120
18 -31 54 -88 137 -215 14 -22 29 -42 34 -43 4 -2 7 -9 7 -16 0 -7 9 -21 20
-31 11 -10 20 -23 20 -29 0 -11 24 -44 67 -93 13 -14 23 -31 23 -37 0 -6 9
-18 20 -26 11 -8 20 -19 20 -25 0 -5 12 -23 26 -40 14 -16 38 -45 52 -64 15
-19 47 -59 72 -90 24 -31 48 -60 52 -66 5 -5 20 -23 34 -40 14 -16 39 -47 57
-68 142 -171 493 -526 662 -668 22 -19 42 -36 45 -39 6 -6 119 -100 140 -117
8 -6 43 -34 76 -62 34 -28 67 -51 73 -51 6 0 11 -3 11 -7 0 -5 17 -19 37 -33
20 -14 41 -30 47 -35 6 -6 28 -21 48 -35 21 -14 38 -28 38 -32 0 -5 5 -8 11
-8 5 0 25 -12 43 -27 19 -14 37 -25 41 -24 4 2 11 -2 14 -7 9 -13 188 -132
200 -132 5 0 11 -3 13 -8 3 -8 179 -119 188 -119 3 1 18 -8 33 -18 85 -55 668
-345 707 -351 3 0 28 -11 55 -23 28 -13 55 -24 60 -25 6 -1 28 -10 50 -20 133
-58 507 -180 722 -236 125 -33 395 -94 453 -104 19 -3 46 -8 60 -11 14 -3 39
-7 55 -9 17 -3 44 -7 60 -10 60 -10 92 -15 175 -26 47 -6 99 -13 115 -15 49
-7 137 -16 185 -20 25 -2 88 -7 140 -11 198 -15 833 -9 1025 11 22 2 69 7 105
10 36 3 76 8 90 10 14 2 48 7 75 10 103 14 185 26 255 39 14 3 41 8 60 10 19
3 46 8 60 11 14 3 48 9 75 15 54 10 63 12 140 30 28 6 59 14 70 16 11 2 29 6
40 8 27 6 186 47 205 53 8 2 15 4 15 4 0 0 45 13 100 30 55 17 107 32 115 34
17 4 213 72 315 108 104 38 318 127 333 139 6 6 12 8 12 5 0 -3 44 15 98 40
165 76 207 98 214 108 4 6 8 6 8 1 0 -5 6 -4 13 1 6 6 66 38 132 73 66 34 127
68 135 75 8 8 17 13 20 12 8 -1 105 56 108 65 2 4 8 8 12 8 11 0 160 89 178
106 6 7 21 16 32 19 11 3 20 11 20 16 0 5 4 9 10 9 8 0 102 61 135 88 6 4 26
17 45 29 31 19 47 32 107 83 7 5 15 10 19 10 3 0 18 10 33 23 15 12 43 33 61
47 19 14 42 32 51 41 9 9 23 21 32 25 14 9 48 37 202 167 111 95 275 250 387
364 164 169 188 194 188 197 0 2 17 21 38 43 20 22 57 64 82 93 25 29 50 58
55 64 6 6 28 34 50 61 21 28 42 52 45 55 3 3 18 23 35 45 16 22 33 45 37 50 5
6 16 20 26 32 9 12 24 32 34 45 9 13 44 60 77 106 34 45 61 86 61 90 0 4 11
19 25 34 14 15 25 30 25 34 0 4 10 21 23 38 38 51 157 245 157 256 0 5 3 10 8
10 4 0 16 17 27 38 11 20 40 73 65 117 26 44 59 107 76 140 16 33 31 62 34 65
7 7 62 124 62 130 0 3 5 12 12 20 27 32 228 511 272 650 8 25 19 54 24 65 9
21 41 122 91 288 27 90 102 379 113 437 3 14 7 34 10 45 17 75 63 322 70 385
4 25 8 55 10 67 3 12 7 50 11 84 4 35 8 66 10 69 2 4 7 53 20 200 15 174 19
300 19 575 0 276 -8 515 -19 573 -1 9 -6 53 -10 97 -3 44 -8 91 -10 105 -2 14
-7 48 -10 75 -4 28 -8 59 -10 70 -1 11 -6 43 -10 70 -4 28 -8 57 -10 65 -1 8
-6 35 -9 60 -4 25 -11 63 -16 85 -4 22 -13 65 -19 95 -24 120 -58 269 -70 308
-5 18 -10 36 -11 40 0 4 -5 25 -11 47 -6 22 -13 48 -15 59 -4 22 -7 32 -74
246 -28 91 -55 174 -60 185 -5 11 -20 54 -35 95 -93 261 -278 666 -421 920
-20 36 -45 81 -56 100 -10 19 -23 42 -28 50 -108 173 -130 211 -130 219 0 5
-4 11 -8 13 -4 2 -55 72 -113 156 -131 191 -173 250 -204 285 -6 7 -31 39 -57
72 -25 33 -54 69 -65 80 -10 11 -30 36 -44 55 -15 19 -37 47 -50 61 -13 14
-53 59 -89 100 -117 133 -339 359 -353 359 -4 0 -5 5 -2 10 3 6 2 10 -3 10 -5
0 -27 17 -48 38 -49 48 -214 194 -278 247 -27 22 -58 48 -70 58 -11 10 -34 28
-49 40 -16 12 -34 27 -40 32 -7 6 -30 24 -52 40 -22 17 -46 35 -55 42 -88 69
-309 223 -319 223 -4 0 -16 9 -26 20 -10 11 -24 20 -31 20 -7 0 -14 4 -16 8
-1 5 -57 42 -123 82 -118 72 -151 91 -230 133 -22 12 -42 24 -45 27 -24 24
-465 237 -630 304 -36 15 -74 31 -85 35 -91 39 -148 61 -157 61 -5 0 -25 7
-42 15 -29 14 -307 110 -346 119 -13 4 -117 33 -195 56 -16 5 -41 11 -55 13
-14 3 -50 12 -80 21 -30 8 -67 18 -82 21 -68 13 -85 17 -123 27 -22 5 -51 12
-65 14 -14 2 -45 9 -70 14 -25 5 -65 12 -90 16 -24 3 -47 7 -51 9 -3 2 -30 7
-59 10 -30 4 -57 8 -60 10 -3 2 -32 6 -65 9 -33 4 -67 9 -75 11 -14 3 -93 12
-185 21 -22 2 -69 6 -105 9 -36 4 -87 9 -115 11 -61 5 -742 14 -747 9z"/>
</g>
</svg>
